# xmcd
# Track frame offsets:
# 150
# 12190
# 25590
# 40172
# 53542
# 65665
# 80917
# 97029
# 111442
# 127697
# 142715
# 159182
# 174067
# 186220
#
# Disc length: 2654 seconds
# Revision: 0
# Processed by: cddbd v1.5.2PL0 Copyright (c) Steve Scherf et al.
# Submitted via: VisiTrax 2.10.3.257 - For more info visit www.synapsa.com
#
DISCID=a40a5c0e
DTITLE=Lise (Country Lise) - For Tid Og Evighed
DYEAR=1999
DGENRE=Country
TTITLE0=Sig Mig
TTITLE1=En Dag
TTITLE2=Min Go'e Gamle Bil
TTITLE3=For Tid Og Evighed
TTITLE4=Næste Gang Jeg Ser Dig
TTITLE5=Sing Them Lovesongs
TTITLE6=Duft Af Sommer
TTITLE7=Hvad Med Kærlighed?
TTITLE8=Ræk Mig Din Hånd
TTITLE9=Lige Netop Den Sang
TTITLE10=Du Skal Ikke Gi' Mig Blomster
TTITLE11=Det Handler Om Kærlighed
TTITLE12=Sikke Et Held
TTITLE13=Ka' Du Ha' Det Rigtig Godt
EXTD=N-s-j@get2net.dk
EXTT0=
EXTT1=
EXTT2=
EXTT3=
EXTT4=
EXTT5=
EXTT6=
EXTT7=
EXTT8=
EXTT9=
EXTT10=
EXTT11=
EXTT12=
EXTT13=
PLAYORDER=
